<svg width="24" height="24" viewBox="0 0 24 24" fill="none" xmlns="http://www.w3.org/2000/svg">
<g clip-path="url(#clip0_101_1140)">
<path d="M0.870216 18.355C0.622 18.7597 0.343228 19.2294 0.106465 19.6037C0.00459268 19.7758 -0.0256744 19.9811 0.0221688 20.1753C0.070012 20.3695 0.192147 20.5372 0.362322 20.6424L5.32672 23.6974C5.413 23.7506 5.509 23.7862 5.60912 23.802C5.70928 23.8178 5.81156 23.8134 5.91004 23.7892C6.00852 23.7651 6.10116 23.7216 6.18264 23.6612C6.26408 23.6008 6.33272 23.5249 6.38452 23.4377C6.58308 23.1055 6.83896 22.674 7.11772 22.2119C9.08436 18.966 11.0625 19.3631 14.6292 21.0663L19.5516 23.4072C19.6439 23.4511 19.744 23.476 19.8461 23.4806C19.9482 23.4851 20.0502 23.469 20.146 23.4334C20.2418 23.3978 20.3294 23.3434 20.4038 23.2732C20.4782 23.2031 20.5377 23.1188 20.5788 23.0253L22.9427 17.679C23.023 17.4955 23.0279 17.2878 22.9565 17.1006C22.885 16.9135 22.743 16.7619 22.5608 16.6785C21.5221 16.1897 19.4562 15.2159 17.5964 14.3185C10.9059 11.0687 5.2198 11.2788 0.870216 18.355Z" fill="url(#paint0_linear_101_1140)"/>
<path d="M23.1298 6.22272C23.3781 5.81796 23.6568 5.34824 23.8936 4.974C23.9955 4.80184 24.0257 4.5966 23.9779 4.40236C23.9301 4.20816 23.8079 4.04044 23.6377 3.9353L18.6733 0.880288C18.5864 0.821748 18.4884 0.78172 18.3853 0.762696C18.2823 0.743668 18.1765 0.746052 18.0744 0.769692C17.9723 0.793332 17.8761 0.837728 17.792 0.900112C17.7078 0.9625 17.6373 1.04154 17.585 1.13232C17.3864 1.46456 17.1305 1.89608 16.8518 2.35815C14.8851 5.60408 12.907 5.20696 9.34025 3.50378L4.43317 1.17433C4.34089 1.13041 4.24073 1.10546 4.13865 1.10094C4.03653 1.09643 3.93458 1.11246 3.83879 1.14806C3.743 1.18368 3.65533 1.23815 3.58097 1.30825C3.50662 1.37836 3.44708 1.46268 3.40591 1.55621L1.04209 6.90248C0.961821 7.086 0.956865 7.29372 1.0283 7.48088C1.09973 7.66804 1.24182 7.81964 1.42397 7.903C2.46267 8.3918 4.52861 9.3656 6.38837 10.263C13.0941 13.5089 18.7803 13.2913 23.1298 6.22272Z" fill="url(#paint1_linear_101_1140)"/>
</g>
<defs>
<linearGradient id="paint0_linear_101_1140" x1="22.809" y1="25.2746" x2="7.7898" y2="16.6441" gradientUnits="userSpaceOnUse">
<stop offset="0.18" stop-color="#0052CC"/>
<stop offset="1" stop-color="#2684FF"/>
</linearGradient>
<linearGradient id="paint1_linear_101_1140" x1="-6333.56" y1="18016.4" x2="-5813.56" y2="18613.1" gradientUnits="userSpaceOnUse">
<stop offset="0.18" stop-color="#0052CC"/>
<stop offset="1" stop-color="#2684FF"/>
</linearGradient>
<clipPath id="clip0_101_1140">
<rect width="24" height="24" fill="white"/>
</clipPath>
</defs>
</svg>
