<svg width="24" height="24" viewBox="0 0 24 24" fill="none" xmlns="http://www.w3.org/2000/svg">
<path d="M23.9955 14.2643C24.0798 17.2582 22.7845 19.4966 20.2368 20.9305C16.7087 22.926 12.9101 24.1215 8.80683 23.9985C6.49422 23.9244 4.64443 22.8134 3.43193 20.8743C1.11045 17.1574 -0.139014 13.0895 0.0118082 8.68686C0.0916554 6.36996 1.28493 4.55674 3.23231 3.36274C6.90085 1.11399 10.8962 -0.133341 15.2301 0.0118348C17.5767 0.0903485 19.3881 1.30805 20.6213 3.2783C22.7195 6.63217 23.6998 10.349 23.9955 14.2643Z" fill="white"/>
<path d="M13.6538 16.5279C12.7612 16.8643 11.7873 16.9201 10.8621 16.6878C8.68704 16.0953 7.10784 14.0984 7.10784 11.9237C7.09648 11.2712 7.21749 10.6232 7.46352 10.0189C7.70956 9.41464 8.07551 8.86672 8.53918 8.40835C9.43195 7.52084 10.6323 7.01296 11.8898 6.99066H11.9356C14.2305 7.01585 15.6855 8.75204 15.6973 8.76833C15.7928 8.8862 15.9311 8.96123 16.0819 8.97693C16.2326 8.99263 16.3833 8.9477 16.501 8.85203C16.6186 8.75636 16.6935 8.61779 16.7092 8.4668C16.7249 8.3158 16.68 8.16476 16.5845 8.04689C16.5121 7.95801 14.7909 5.87814 11.949 5.84703C11.1572 5.84933 10.3738 6.00859 9.64374 6.31563C8.91371 6.62267 8.25156 7.07141 7.69544 7.636C7.13932 8.20059 6.70022 8.86986 6.40346 9.60524C6.10669 10.3406 5.95813 11.1276 5.96633 11.9207C5.96633 14.6035 7.9004 17.073 10.5664 17.79C11.0247 17.9118 11.497 17.9726 11.9711 17.9707C12.6775 17.9686 13.3781 17.8427 14.0412 17.5989C15.7979 16.956 17.5116 15.2642 17.4495 13.3029C17.0491 13.5918 16.6308 13.855 16.1971 14.091C15.8585 15.1753 14.7865 16.1145 13.6538 16.5279Z" fill="black"/>
<path d="M17.9656 10.5697C17.587 10.9622 17.1737 11.3197 16.7309 11.6378C15.968 10.8971 14.7525 10.5386 13.8727 10.5386C13.1541 10.5386 12.6025 10.7282 12.2358 11.1C12.0929 11.2462 11.9811 11.4199 11.9072 11.6106C11.8332 11.8013 11.7986 12.0051 11.8056 12.2096C11.8174 12.9873 12.3748 13.8288 13.8993 13.8628C14.7496 13.8836 15.5806 13.608 16.308 13.2347C16.6686 13.0505 17.0146 12.839 17.3431 12.6022C17.8688 12.2321 18.3576 11.8119 18.8025 11.3474C18.9055 11.236 18.96 11.0883 18.9542 10.9366C18.9484 10.7849 18.8827 10.6417 18.7715 10.5386C18.6603 10.4355 18.5128 10.3808 18.3614 10.3866C18.21 10.3925 18.0671 10.4583 17.9641 10.5697H17.9656ZM13.9245 12.7192C13.4809 12.7088 12.9545 12.6096 12.9471 12.1918C12.9419 12.138 12.9484 12.0837 12.966 12.0326C12.9836 11.9815 13.0119 11.9347 13.0491 11.8955C13.1304 11.8126 13.3448 11.6748 13.8727 11.6748C14.5245 11.6937 15.1572 11.8993 15.6959 12.2674C15.1502 12.5582 14.5426 12.7132 13.9245 12.7192Z" fill="black"/>
</svg>
