<svg width="24" height="24" viewBox="0 0 24 24" fill="none" xmlns="http://www.w3.org/2000/svg">
<g clip-path="url(#clip0_101_910)">
<path d="M23.2639 11.3203L12.9435 1.00002L11.9435 0L4.17459 7.76888L0.622031 11.3203C0.444583 11.4987 0.344971 11.74 0.344971 11.9916C0.344971 12.2432 0.444583 12.4846 0.622031 12.663L7.71963 19.7605L11.9435 23.9833L19.7113 16.2144L19.8323 16.0945L23.2639 12.6683C23.3528 12.58 23.4234 12.475 23.4716 12.3594C23.5198 12.2437 23.5445 12.1196 23.5445 11.9943C23.5445 11.869 23.5198 11.745 23.4716 11.6293C23.4234 11.5136 23.3528 11.4086 23.2639 11.3203ZM11.9435 15.5377L8.39739 11.9916L11.9435 8.44552L15.4886 11.9916L11.9435 15.5377Z" fill="#2684FF"/>
<path d="M11.9479 8.454C10.8326 7.33904 10.204 5.82804 10.1992 4.25104C10.1943 2.67407 10.8138 1.15926 11.9222 0.0374985L4.16309 7.7934L8.38577 12.0161L11.9479 8.454Z" fill="url(#paint0_linear_101_910)"/>
<path d="M15.5026 11.9906L11.948 15.5464C13.0674 16.6661 13.6963 18.1847 13.6963 19.768C13.6963 21.3514 13.0674 22.87 11.948 23.9898L19.7286 16.2134L15.5026 11.9906Z" fill="url(#paint1_linear_101_910)"/>
</g>
<defs>
<linearGradient id="paint0_linear_101_910" x1="11.313" y1="4.8662" x2="6.36113" y2="9.81696" gradientUnits="userSpaceOnUse">
<stop offset="0.18" stop-color="#0052CC"/>
<stop offset="1" stop-color="#2684FF"/>
</linearGradient>
<linearGradient id="paint1_linear_101_910" x1="903.988" y1="1041.16" x2="1409.63" y2="1368.95" gradientUnits="userSpaceOnUse">
<stop offset="0.18" stop-color="#0052CC"/>
<stop offset="1" stop-color="#2684FF"/>
</linearGradient>
<clipPath id="clip0_101_910">
<rect width="24" height="24" fill="white"/>
</clipPath>
</defs>
</svg>
