<svg width="24" height="24" viewBox="0 0 24 24" fill="none" xmlns="http://www.w3.org/2000/svg">
<g clip-path="url(#clip0_101_1044)">
<path d="M1.44408 1.03513L14.724 0.0542516C16.3553 -0.0856684 16.7743 0.00865156 17.8001 0.754332L22.0392 3.74065C22.7383 4.25425 22.9711 4.39417 22.9711 4.95337V21.3317C22.9711 22.3582 22.5984 22.9654 21.2935 23.058L5.87208 23.9921C4.89288 24.0384 4.42656 23.8985 3.91368 23.245L0.792 19.1856C0.23208 18.4385 0 17.8793 0 17.2255V2.66713C0 1.82785 0.37272 1.12801 1.44408 1.03513Z" fill="white"/>
<path fill-rule="evenodd" clip-rule="evenodd" d="M14.724 0.0544916L1.44408 1.03537C0.37272 1.12801 0 1.82809 0 2.66713V17.2255C0 17.8791 0.23208 18.4383 0.792 19.1856L3.91368 23.2447C4.42656 23.8983 4.89288 24.0384 5.87208 23.9919L21.2938 23.0583C22.5977 22.9654 22.9714 22.3582 22.9714 21.3319V4.95361C22.9714 4.42321 22.7618 4.27033 22.145 3.81769L17.8001 0.754332C16.7746 0.00865156 16.3553 -0.0856684 14.724 0.0542516V0.0544916ZM6.2208 4.68553C4.96152 4.77025 4.67592 4.78945 3.96072 4.20793L2.14248 2.76169C1.95768 2.57449 2.05056 2.34097 2.51616 2.29441L15.2825 1.36153C16.3546 1.26793 16.9128 1.64161 17.3321 1.96801L19.5216 3.55441C19.6152 3.60169 19.848 3.88081 19.5679 3.88081L6.384 4.67449L6.2208 4.68553ZM4.75272 21.192V7.28809C4.75272 6.68089 4.9392 6.40081 5.49744 6.35377L20.64 5.46721C21.1536 5.42089 21.3857 5.74729 21.3857 6.35353V20.1648C21.3857 20.772 21.2921 21.2856 20.4538 21.3319L5.96328 22.1719C5.12496 22.2183 4.75296 21.9391 4.75296 21.192H4.75272ZM19.0567 8.03353C19.1496 8.45353 19.0567 8.87353 18.6367 8.92153L17.9383 9.06001V19.3255C17.3318 19.6519 16.7736 19.8384 16.307 19.8384C15.5614 19.8384 15.3751 19.6049 14.8166 18.9055L10.2494 11.7199V18.672L11.6942 18.9991C11.6942 18.9991 11.6942 19.8391 10.5286 19.8391L7.31496 20.0256C7.22136 19.8384 7.31496 19.3721 7.64064 19.2792L8.47992 19.0464V9.85441L7.3152 9.76009C7.2216 9.34009 7.4544 8.73361 8.1072 8.68657L11.5553 8.45449L16.3073 15.733V9.29377L15.096 9.15457C15.0024 8.64025 15.3751 8.26657 15.8407 8.22097L19.0567 8.03353Z" fill="black"/>
</g>
<defs>
<clipPath id="clip0_101_1044">
<rect width="24" height="24" fill="white"/>
</clipPath>
</defs>
</svg>
