<svg width="16" height="21" viewBox="0 0 16 21" fill="none" xmlns="http://www.w3.org/2000/svg">
<path d="M10.2253 8.25414C10.2121 8.2401 10.1986 8.22632 10.185 8.21269C10.1673 8.23388 10.1481 8.25403 10.1275 8.27347C9.97237 8.42995 9.742 8.52621 9.5227 8.52621C9.29096 8.52621 9.08533 8.42843 8.91796 8.27347C8.75007 8.11795 8.67737 7.88651 8.66748 7.66328C8.666 7.62365 8.66778 7.58488 8.67278 7.54699C8.64989 7.54569 8.62693 7.54473 8.60415 7.54432C8.13022 7.53428 7.87811 7.60521 7.79185 7.78984C7.69456 7.99821 7.81422 8.18484 8.17544 8.6294C8.55493 9.09651 9.21474 9.35269 9.79248 9.37354C10.3263 9.39284 10.5804 9.34217 10.6666 9.15754C10.7639 8.94917 10.6796 8.73554 10.2253 8.25414Z" fill="white"/>
<path d="M11.2679 1.14938C14.7459 3.28954 16.113 6.94411 12.9361 10.0111C12.8521 10.0923 12.7136 10.0622 12.6702 9.95319C12.4031 9.28156 12.1885 8.55752 11.7858 7.96344C10.859 6.59633 9.36428 6.14511 7.8442 5.85844C5.84258 5.48093 5.71524 5.59593 5.90739 7.66996C6.08228 9.55793 6.93554 11.1217 8.4608 12.2329C10.1409 13.4567 12.4533 13.5258 13.9273 11.3894C14.0144 11.2631 14.2102 11.3142 14.2252 11.4672C14.6392 15.6776 11.4673 19.5491 6.59895 19.4416C6.45669 19.4385 6.38558 19.2667 6.48332 19.1625C6.68802 18.9443 6.87169 18.7496 7.04761 18.5481C8.81554 16.5242 8.49913 13.6065 6.37576 12.3743C6.26135 12.3079 6.13946 12.2545 6.00246 12.2234C5.83109 12.1845 5.7275 12.412 5.86895 12.5171C5.87002 12.5179 5.87109 12.5187 5.87213 12.5195C7.42339 13.6468 7.26309 15.9914 6.21039 17.386C5.14232 18.8007 3.73264 19.5954 1.91865 19.8731C1.80858 19.89 1.71437 19.7928 1.73278 19.6821C1.987 18.1556 2.24834 16.6713 2.47402 15.1815C2.90751 12.3212 3.37442 9.46404 3.71379 6.59189C3.88156 5.17137 3.45468 3.79874 2.81755 2.51483C2.7491 2.37681 2.6782 2.24008 2.59144 2.0735C2.52076 1.93763 2.65574 1.78619 2.79712 1.8429C3.2768 2.03537 3.69303 2.21194 4.12428 2.33535C5.36554 2.69064 6.25676 3.35086 9.10709 3.37299C10.5801 3.38437 11.1693 2.63866 11.0202 1.3091C11.0048 1.1728 11.1519 1.07807 11.2679 1.14938Z" fill="white"/>
</svg>
