<svg width="36" height="24" viewBox="0 0 36 24" fill="none" xmlns="http://www.w3.org/2000/svg">
<path fill-rule="evenodd" clip-rule="evenodd" d="M0.921021 15.0063V13.6739C1.13197 11.8212 2.21166 10.2385 3.73569 9.33939C3.37421 8.50668 3.18814 7.60843 3.18909 6.70065C3.18909 3.03154 6.1671 0.0660934 9.83621 0.0660934C11.9849 0.0660934 13.9074 1.09018 15.1137 2.67971L15.1124 2.67317C16.2157 1.52469 17.7512 0.813486 19.4475 0.813486C21.7093 0.813486 23.6695 2.07003 24.725 3.94228C25.6619 3.52344 26.6767 3.30721 27.703 3.30773C31.7742 3.30773 35.0789 6.63757 35.0789 10.7465C35.0789 14.8554 31.7742 18.1852 27.703 18.1852C27.2054 18.1852 26.7204 18.1352 26.2454 18.0407C25.3219 19.6868 23.5564 20.8051 21.5459 20.8051C20.7274 20.8067 19.9194 20.621 19.1836 20.2623C18.3663 22.1821 16.6008 23.6039 14.4766 23.9339H12.5782C10.3495 23.5887 8.52285 22.0488 7.76166 19.9858C7.37577 20.0673 6.98243 20.1082 6.58804 20.108C3.65748 20.108 1.24765 17.8732 0.921021 15.0063Z" fill="#00A1E0"/>
<path fill-rule="evenodd" clip-rule="evenodd" d="M5.86428 12.4742C5.84279 12.5303 5.87194 12.5419 5.87885 12.5519C5.94306 12.5984 6.00828 12.632 6.07362 12.6699C6.42294 12.8546 6.75215 12.9086 7.09645 12.9086C7.7976 12.9086 8.23362 12.5354 8.23362 11.9348V11.923C8.23362 11.3676 7.74105 11.1653 7.28116 11.0208L7.22097 11.0013C6.87291 10.8885 6.57259 10.7902 6.57259 10.5615V10.5498C6.57259 10.3538 6.74851 10.2093 7.01992 10.2093C7.32149 10.2093 7.68086 10.3097 7.91081 10.4367C7.91081 10.4367 7.97892 10.4807 8.00367 10.415C8.01712 10.3794 8.13435 10.0657 8.14692 10.0305C8.16024 9.99367 8.13686 9.9659 8.11286 9.95157C7.84899 9.79074 7.48459 9.68142 7.10763 9.68142L7.03764 9.68167C6.39554 9.68167 5.94696 10.0699 5.94696 10.6253V10.6373C5.94696 11.2228 6.44204 11.4138 6.90445 11.5458L6.97883 11.5689C7.31559 11.6724 7.6071 11.7624 7.6071 11.9986V12.0104C7.6071 12.2278 7.41737 12.3899 7.11328 12.3899C6.99504 12.3899 6.6182 12.3879 6.20983 12.1298C6.16045 12.101 6.1323 12.0803 6.09423 12.057C6.07412 12.0449 6.02386 12.0229 6.00199 12.0887L5.86377 12.4732M16.1297 12.4732C16.1083 12.5292 16.1374 12.5409 16.1446 12.5509C16.2085 12.5974 16.274 12.631 16.3393 12.6689C16.6887 12.8536 17.0179 12.9076 17.3622 12.9076C18.0633 12.9076 18.4993 12.5344 18.4993 11.9338V11.922C18.4993 11.3666 18.008 11.1643 17.5469 11.0198L17.4867 11.0003C17.1386 10.8874 16.8383 10.7892 16.8383 10.5605V10.5488C16.8383 10.3528 17.0142 10.2083 17.2856 10.2083C17.5872 10.2083 17.9453 10.3087 18.1765 10.4357C18.1765 10.4357 18.2446 10.4797 18.2695 10.414C18.2828 10.3784 18.4002 10.0647 18.4115 10.0295C18.4249 9.99266 18.4014 9.96489 18.3776 9.95057C18.1137 9.78973 17.7493 9.68041 17.3723 9.68041L17.3022 9.68066C16.6601 9.68066 16.2115 10.0689 16.2115 10.6243V10.6363C16.2115 11.2218 16.7066 11.4128 17.169 11.5447L17.2433 11.5679C17.5813 11.6714 17.8716 11.7614 17.8716 11.9976V12.0094C17.8716 12.2268 17.6818 12.3889 17.3777 12.3889C17.2593 12.3889 16.8814 12.3869 16.4743 12.1288C16.4249 12.1 16.396 12.0802 16.3586 12.056C16.3459 12.048 16.2867 12.0249 16.2665 12.0877L16.1282 12.4722M23.1398 11.2961C23.1398 11.6353 23.0764 11.903 22.9525 12.0927C22.8289 12.28 22.6422 12.3717 22.3821 12.3717C22.122 12.3717 21.936 12.2807 21.8141 12.094C21.6913 11.9055 21.6294 11.6366 21.6294 11.2973C21.6294 10.9581 21.6917 10.6917 21.8141 10.5045C21.9357 10.3185 22.1207 10.2293 22.3821 10.2293C22.6434 10.2293 22.8294 10.3194 22.9525 10.5045C23.0772 10.6917 23.1398 10.9581 23.1398 11.2973M23.7253 10.6678C23.6676 10.473 23.5783 10.3022 23.4589 10.1589C23.3394 10.0157 23.1888 9.90006 23.0091 9.81712C22.8306 9.73356 22.6195 9.69147 22.3808 9.69147C22.1421 9.69147 21.9322 9.73382 21.7525 9.81712C21.5741 9.90056 21.4221 10.0157 21.3027 10.1589C21.1836 10.3022 21.0941 10.473 21.0363 10.6678C20.9791 10.8613 20.9501 11.0724 20.9501 11.2973C20.9501 11.5223 20.9791 11.7334 21.0363 11.9269C21.0937 12.1216 21.1833 12.2925 21.3027 12.4358C21.4222 12.579 21.5741 12.6934 21.7525 12.775C21.9322 12.8565 22.1433 12.8979 22.3808 12.8979C22.6183 12.8979 22.8294 12.8565 23.0078 12.775C23.1862 12.6936 23.3383 12.579 23.4577 12.4358C23.5769 12.2925 23.6662 12.1216 23.724 11.9269C23.7811 11.7334 23.8101 11.5223 23.8101 11.2973C23.8101 11.0737 23.7811 10.8613 23.724 10.6678M28.5366 12.2762C28.5174 12.2193 28.4618 12.2407 28.4618 12.2407C28.3768 12.2733 28.2859 12.3034 28.1892 12.3185C28.0917 12.3339 27.9831 12.3415 27.8688 12.3415C27.586 12.3415 27.3599 12.2572 27.199 12.0902C27.0369 11.9231 26.9465 11.6542 26.9477 11.2898C26.9486 10.9581 27.0288 10.7093 27.1726 10.5183C27.3146 10.3298 27.5333 10.2318 27.8223 10.2318C28.0635 10.2318 28.2482 10.2598 28.4417 10.3204C28.4417 10.3204 28.4876 10.3403 28.5096 10.2799C28.561 10.1379 28.5989 10.0361 28.6541 9.88033C28.6697 9.83572 28.6315 9.81687 28.6175 9.81147C28.5416 9.78182 28.3625 9.73319 28.2267 9.71271C28.0998 9.69335 27.9528 9.6833 27.787 9.6833C27.5407 9.6833 27.322 9.7254 27.1348 9.80883C26.9476 9.89214 26.7893 10.0074 26.6636 10.1506C26.538 10.2939 26.4425 10.4647 26.3784 10.6595C26.3149 10.853 26.2829 11.0654 26.2829 11.2903C26.2829 11.7753 26.4136 12.1686 26.6724 12.4564C26.9313 12.7454 27.3208 12.8911 27.8284 12.8911C28.1287 12.8911 28.4366 12.8304 28.6577 12.7429C28.6577 12.7429 28.7 12.7225 28.6816 12.6732L28.5371 12.2762M29.5612 10.9694C29.5892 10.7809 29.6409 10.6238 29.722 10.5019C29.8435 10.316 30.0286 10.2142 30.2887 10.2142C30.5488 10.2142 30.721 10.3165 30.8441 10.5019C30.9258 10.6245 30.9615 10.7872 30.9748 10.9694L29.5549 10.9691L29.5612 10.9694ZM31.534 10.5547C31.4841 10.3675 31.3606 10.1778 31.2802 10.0911C31.152 9.95409 31.0276 9.85733 30.9032 9.80456C30.7236 9.72819 30.5304 9.689 30.3352 9.68933C30.0877 9.68933 29.8628 9.73118 29.6806 9.81624C29.4984 9.90194 29.3451 10.0185 29.2244 10.1643C29.1039 10.3101 29.0133 10.4822 28.9555 10.6795C28.8977 10.8743 28.8686 11.0879 28.8686 11.3115C28.8686 11.5402 28.8989 11.7526 28.9584 11.9448C29.0186 12.1383 29.1155 12.308 29.2462 12.4487C29.3769 12.5907 29.544 12.7013 29.745 12.7792C29.9448 12.8565 30.1873 12.8965 30.465 12.8957C31.038 12.8938 31.3396 12.7662 31.4627 12.6971C31.4847 12.6848 31.5054 12.6636 31.4796 12.6024L31.3501 12.2392C31.3303 12.1851 31.2755 12.2047 31.2755 12.2047C31.1335 12.2577 30.9325 12.353 30.4613 12.3517C30.1534 12.3512 29.926 12.2603 29.7827 12.118C29.637 11.9722 29.5641 11.7599 29.5528 11.4583L31.5381 11.4598C31.5381 11.4598 31.5904 11.4593 31.5958 11.4083C31.5979 11.3872 31.6638 11.0012 31.5366 10.5551L31.534 10.5547ZM13.691 10.9694C13.7191 10.7809 13.7708 10.6238 13.8519 10.5019C13.9735 10.316 14.1585 10.2142 14.4186 10.2142C14.6787 10.2142 14.8508 10.3165 14.974 10.5019C15.0555 10.6245 15.0912 10.7872 15.1047 10.9694L13.6848 10.9691L13.691 10.9694ZM15.6638 10.5547C15.6141 10.3675 15.4904 10.1778 15.41 10.0911C15.2818 9.95409 15.1574 9.85733 15.033 9.80456C14.8534 9.72819 14.6602 9.689 14.4651 9.68933C14.2175 9.68933 13.9926 9.73118 13.8104 9.81624C13.6282 9.90194 13.4749 10.0185 13.3543 10.1643C13.234 10.3101 13.1432 10.4822 13.0854 10.6795C13.0277 10.8743 12.9987 11.0879 12.9987 11.3115C12.9987 11.5402 13.0287 11.7526 13.0887 11.9448C13.1487 12.1383 13.2457 12.308 13.3751 12.4487C13.5058 12.5907 13.6729 12.7013 13.874 12.7792C14.0738 12.8565 14.315 12.8965 14.594 12.8957C15.167 12.8938 15.4685 12.7662 15.5917 12.6971C15.6136 12.6848 15.6344 12.6636 15.6084 12.6024L15.479 12.2392C15.459 12.1851 15.4042 12.2047 15.4042 12.2047C15.2622 12.2577 15.0612 12.353 14.59 12.3517C14.2834 12.3512 14.0547 12.2603 13.9114 12.118C13.7657 11.9722 13.6928 11.7599 13.6815 11.4583L15.6668 11.4598C15.6668 11.4598 15.7191 11.4593 15.7245 11.4083C15.7266 11.3872 15.7925 11.0012 15.6652 10.5551L15.6638 10.5547ZM9.40622 12.2636C9.32844 12.2015 9.31764 12.1863 9.29188 12.146C9.25255 12.0853 9.23245 11.999 9.23245 11.8884C9.23245 11.715 9.29025 11.5894 9.40962 11.5052C9.40836 11.5054 9.58051 11.3569 9.98512 11.3619C10.1652 11.3651 10.3449 11.3805 10.5229 11.4078V12.3087H10.5232C10.5232 12.3087 10.2719 12.3629 9.98788 12.38C9.58453 12.4042 9.4061 12.2639 9.40736 12.2642L9.40622 12.2636ZM10.1953 10.8689C10.1149 10.8629 10.0106 10.8601 9.88622 10.8601C9.71659 10.8601 9.55198 10.8812 9.39869 10.9226C9.24413 10.9643 9.10465 11.0289 8.98528 11.1149C8.86558 11.2003 8.76713 11.3121 8.69753 11.4416C8.62729 11.5723 8.59148 11.7256 8.59148 11.899C8.59148 12.0749 8.62202 12.2269 8.68233 12.3513C8.74143 12.4747 8.8304 12.5814 8.94118 12.6617C9.05138 12.7419 9.18746 12.8012 9.34453 12.8363C9.50034 12.8719 9.67626 12.8899 9.86976 12.8899C10.0733 12.8899 10.2756 12.8728 10.4716 12.8397C10.6386 12.8109 10.8049 12.7786 10.9705 12.7427C11.0366 12.7275 11.11 12.7076 11.11 12.7076C11.159 12.6951 11.1552 12.6427 11.1552 12.6427L11.1541 10.8333C11.1541 10.4362 11.048 10.1409 10.8387 9.95874C10.6301 9.77654 10.3248 9.68481 9.92895 9.68481C9.78068 9.68481 9.54068 9.70491 9.39743 9.73369C9.39743 9.73369 8.96518 9.81763 8.78675 9.95735C8.78675 9.95735 8.74754 9.98148 8.76891 10.0361L8.90964 10.4131C8.9271 10.462 8.97473 10.4453 8.97473 10.4453C8.97473 10.4453 8.98968 10.4394 9.00727 10.4289C9.38801 10.2216 9.87052 10.2279 9.87052 10.2279C10.0841 10.2279 10.25 10.2712 10.3606 10.3561C10.4688 10.4391 10.5239 10.5646 10.5239 10.8285V10.9123C10.3543 10.8877 10.1972 10.8735 10.1972 10.8735L10.1953 10.8689ZM26.1535 9.84728C26.1563 9.84065 26.1578 9.83352 26.1578 9.82631C26.1579 9.81909 26.1565 9.81194 26.1537 9.80528C26.1509 9.79862 26.1468 9.79259 26.1417 9.78754C26.1365 9.7825 26.1304 9.77854 26.1237 9.77591C26.0899 9.76309 25.9214 9.72753 25.7919 9.71949C25.5431 9.70391 25.4049 9.74588 25.2805 9.80167C25.1576 9.85708 25.0217 9.94617 24.9463 10.0492L24.946 9.80795C24.946 9.77478 24.9225 9.74801 24.8891 9.74801H24.3815C24.3486 9.74801 24.3247 9.77478 24.3247 9.80795V12.7608C24.3247 12.7768 24.3311 12.7921 24.3423 12.8034C24.3536 12.8146 24.3689 12.821 24.3849 12.821H24.9051C24.921 12.821 24.9363 12.8146 24.9476 12.8033C24.9588 12.7921 24.9651 12.7768 24.9651 12.7608V11.2781C24.9651 11.0796 24.987 10.8823 25.0306 10.7579C25.0736 10.6349 25.132 10.5367 25.204 10.4664C25.2727 10.3984 25.3567 10.348 25.449 10.3194C25.5356 10.2945 25.6253 10.2819 25.7154 10.2819C25.8191 10.2819 25.9328 10.3086 25.9328 10.3086C25.971 10.3128 25.9922 10.2895 26.0052 10.255C26.0392 10.1644 26.1359 9.89315 26.1547 9.83911" fill="#FFFFFE"/>
<path fill-rule="evenodd" clip-rule="evenodd" d="M21.2948 8.48446C21.2304 8.46502 21.165 8.4495 21.0989 8.43796C21.0098 8.42311 20.9197 8.41613 20.8295 8.41711C20.471 8.41711 20.1884 8.51838 19.99 8.71843C19.7929 8.91696 19.6589 9.21941 19.5916 9.61736L19.5674 9.75168H19.1174C19.1174 9.75168 19.0625 9.74942 19.0509 9.80936L18.9771 10.2215C18.9719 10.261 18.9889 10.2856 19.0416 10.2853H19.4797L19.0352 12.7661C19.0004 12.9659 18.9606 13.1303 18.9165 13.2548C18.873 13.3777 18.8305 13.4698 18.7783 13.5366C18.7276 13.6014 18.6796 13.649 18.5968 13.6768C18.5285 13.6997 18.4498 13.7103 18.3636 13.7103C18.3156 13.7103 18.2518 13.7023 18.2047 13.6928C18.1575 13.6835 18.133 13.673 18.0977 13.6582C18.0977 13.6582 18.0463 13.6386 18.0261 13.6901C18.0096 13.7322 17.8929 14.0532 17.8791 14.0929C17.865 14.1321 17.8847 14.163 17.9096 14.172C17.9679 14.1928 18.0113 14.2061 18.0907 14.2249C18.201 14.2509 18.294 14.2525 18.3811 14.2525C18.5635 14.2525 18.7298 14.2269 18.8676 14.1771C19.0063 14.127 19.1271 14.0396 19.2339 13.9214C19.3494 13.7939 19.422 13.6603 19.4915 13.4781C19.5602 13.2975 19.6188 13.0734 19.6656 12.8121L20.1122 10.2853H20.7651C20.7651 10.2853 20.8202 10.2873 20.8316 10.2277L20.9055 9.81551C20.9106 9.77606 20.8938 9.75143 20.8408 9.75168H20.2071C20.2102 9.73736 20.239 9.51445 20.3118 9.3046C20.3428 9.21501 20.4012 9.14276 20.4507 9.09313C20.497 9.04586 20.5539 9.01043 20.6167 8.98984C20.6856 8.96855 20.7574 8.9582 20.8295 8.95918C20.8891 8.95918 20.9477 8.96634 20.9923 8.97564C21.0537 8.98871 21.0776 8.99562 21.0937 9.00039C21.1583 9.02012 21.167 9.00102 21.1797 8.96973L21.3312 8.55357C21.3468 8.50883 21.3088 8.48998 21.2948 8.48446ZM12.4394 12.7714C12.4394 12.8046 12.4158 12.8316 12.3826 12.8316H11.857C11.8237 12.8316 11.8 12.8046 11.8 12.7714V8.54088C11.8 8.50783 11.8237 8.48106 11.857 8.48106H12.3826C12.4158 8.48106 12.4394 8.50783 12.4394 8.54088V12.7714Z" fill="#FFFFFE"/>
</svg>
