<svg width="24" height="24" viewBox="0 0 24 24" fill="none" xmlns="http://www.w3.org/2000/svg">
<g clip-path="url(#clip0_101_883)">
<path d="M12.2791 13.7143C15.9781 13.7143 18.9768 10.6442 18.9768 6.85714C18.9768 3.07005 15.9781 0 12.2791 0C8.58007 0 5.58142 3.07005 5.58142 6.85714C5.58142 10.6442 8.58007 13.7143 12.2791 13.7143Z" fill="#036C70"/>
<path d="M17.8605 19.4286C21.2513 19.4286 24 16.6144 24 13.1429C24 9.67136 21.2513 6.85714 17.8605 6.85714C14.4697 6.85714 11.7209 9.67136 11.7209 13.1429C11.7209 16.6144 14.4697 19.4286 17.8605 19.4286Z" fill="#1A9BA1"/>
<path d="M13.1163 24C15.7364 24 17.8604 21.8254 17.8604 19.1429C17.8604 16.4603 15.7364 14.2857 13.1163 14.2857C10.4961 14.2857 8.37207 16.4603 8.37207 19.1429C8.37207 21.8254 10.4961 24 13.1163 24Z" fill="#37C6D0"/>
<path opacity="0.1" d="M13.3953 6.18857V18.3829C13.3926 18.8066 13.1418 19.1872 12.759 19.3486C12.6372 19.4013 12.5062 19.4285 12.3739 19.4286H8.37765C8.37207 19.3314 8.37207 19.24 8.37207 19.1428C8.37021 19.0475 8.37394 18.9521 8.38324 18.8571C8.48539 17.0305 9.58449 15.4189 11.2242 14.6914V13.6286C7.575 13.0365 5.08553 9.5279 5.66381 5.79184C5.66782 5.76597 5.67197 5.74011 5.67627 5.71428C5.70404 5.52157 5.74319 5.33074 5.79348 5.14286H12.3739C12.9371 5.14505 13.3932 5.61195 13.3953 6.18857Z" fill="black"/>
<path opacity="0.2" d="M11.8158 5.71428H5.67625C5.05604 9.44361 7.50616 12.9816 11.1487 13.6165C11.259 13.6358 11.3698 13.6522 11.4809 13.6657C9.75067 14.5057 8.48983 16.8914 8.38267 18.8571C8.37338 18.9521 8.36965 19.0475 8.3715 19.1429C8.3715 19.24 8.3715 19.3314 8.37708 19.4286C8.38715 19.6206 8.41141 19.8117 8.44963 20H11.8152C12.2291 19.9972 12.6009 19.7404 12.7585 19.3486C12.81 19.2238 12.8366 19.0897 12.8366 18.9543V6.76C12.8345 6.1836 12.3788 5.7168 11.8158 5.71428Z" fill="black"/>
<path opacity="0.2" d="M11.8158 5.71428H5.67627C5.05619 9.44395 7.50668 12.9821 11.1496 13.6169C11.2241 13.6299 11.2989 13.6416 11.3738 13.652C9.69934 14.5526 8.48818 16.9326 8.38325 18.8571H11.8158C12.3781 18.8528 12.8329 18.3871 12.8372 17.8114V6.76C12.8351 6.18338 12.379 5.71648 11.8158 5.71428Z" fill="black"/>
<path opacity="0.2" d="M11.2577 5.71428H5.67626C5.09075 9.23513 7.24563 12.6257 10.627 13.504C9.34663 15.0017 8.56134 16.8752 8.38325 18.8571H11.2577C11.8209 18.8549 12.2769 18.388 12.2791 17.8114V6.76C12.2788 6.1826 11.8216 5.7146 11.2577 5.71428Z" fill="black"/>
<path d="M1.02307 5.71428H11.256C11.821 5.71428 12.2791 6.18323 12.2791 6.76171V17.2383C12.2791 17.8168 11.821 18.2857 11.256 18.2857H1.02307C0.458044 18.2857 0 17.8168 0 17.2383V6.76171C0 6.18323 0.458044 5.71428 1.02307 5.71428Z" fill="url(#paint0_linear_101_883)"/>
<path d="M4.5695 11.872C4.32975 11.7092 4.12948 11.4924 3.98401 11.2383C3.84306 10.9726 3.7728 10.6737 3.78028 10.3714C3.76773 9.9622 3.90261 9.56255 4.15926 9.24856C4.42895 8.93419 4.77754 8.7014 5.16726 8.57541C5.61141 8.42574 6.07662 8.35199 6.54418 8.35713C7.15906 8.33413 7.77307 8.42215 8.35813 8.61714V9.93143C8.10392 9.77376 7.82704 9.65805 7.53767 9.58857C7.22368 9.50974 6.90151 9.47021 6.57823 9.47085C6.23732 9.45804 5.89859 9.53144 5.59199 9.68457C5.35529 9.78909 5.20179 10.0275 5.2013 10.2914C5.20034 10.4515 5.26041 10.6057 5.36874 10.7211C5.4967 10.8573 5.64806 10.9681 5.81526 11.048C6.0013 11.1429 6.28037 11.269 6.65247 11.4263C6.69343 11.4396 6.73337 11.456 6.7719 11.4754C7.13812 11.622 7.49141 11.8003 7.82791 12.0086C8.08273 12.1694 8.2966 12.39 8.45191 12.652C8.61114 12.949 8.68832 13.2849 8.67516 13.6234C8.69334 14.0436 8.5678 14.457 8.32019 14.7926C8.07339 15.1011 7.74342 15.3284 7.37135 15.4463C6.93372 15.5867 6.47698 15.6546 6.01842 15.6474C5.60699 15.6493 5.19617 15.6149 4.79051 15.5446C4.44799 15.4872 4.11373 15.3866 3.79535 15.2451V13.8594C4.09969 14.082 4.43969 14.2483 4.8 14.3509C5.1591 14.4654 5.53239 14.5266 5.90847 14.5326C6.25654 14.5552 6.604 14.4797 6.91312 14.3143C7.12966 14.1892 7.26136 13.9522 7.25582 13.6977C7.25727 13.5206 7.18885 13.3505 7.06606 13.2257C6.91336 13.0723 6.73657 12.9461 6.54309 12.8526C6.31983 12.7383 5.99108 12.5876 5.55685 12.4006C5.21141 12.2584 4.88065 12.0813 4.5695 11.872Z" fill="white"/>
</g>
<defs>
<linearGradient id="paint0_linear_101_883" x1="2.13312" y1="4.89585" x2="10.4321" y2="18.935" gradientUnits="userSpaceOnUse">
<stop stop-color="#058F92"/>
<stop offset="0.5" stop-color="#038489"/>
<stop offset="1" stop-color="#026D71"/>
</linearGradient>
<clipPath id="clip0_101_883">
<rect width="24" height="24" fill="white"/>
</clipPath>
</defs>
</svg>
