<svg width="24" height="24" viewBox="0 0 24 24" fill="none" xmlns="http://www.w3.org/2000/svg">
<path fill-rule="evenodd" clip-rule="evenodd" d="M21.3448 10.9348C19.362 10.86 18.726 12.7868 18.726 12.7868C18.6888 11.9824 18.7448 11.4588 18.7448 11.4588C18.8568 11.3836 20.5408 10.7292 20.634 8.4656C20.6716 7.2312 19.6428 6.52 18.4456 6.9132C17.9964 8.9708 17.5664 11.7768 17.9404 14.7132C17.8656 14.938 17.1924 16.584 16.4628 16.584C15.4712 16.584 15.3028 14.5452 15.3404 13.2168C15.5644 12.7308 16.0324 11.5708 15.6396 11.1032C15.4524 10.86 15.0784 10.8228 14.5172 10.9352C14.5172 11.0656 14.4796 11.9448 14.4796 11.9448C14.4796 11.9448 13.9936 11.0284 12.7964 11.0284C11.0752 11.0284 9.95279 12.6932 9.95279 14.4328C9.95279 14.7136 9.97159 14.9568 9.99039 15.2L10.0092 15.2184L9.99039 15.2372C9.52239 16.0976 9.09239 16.528 8.53119 16.528C7.31519 16.528 7.16559 14.6576 7.16559 14.6576C8.30679 13.3104 8.92399 11.4212 8.92399 9.3636C8.92399 7.6612 8.17599 6.4076 6.64199 6.9132C6.28639 8.7092 5.83759 12.7308 6.17399 14.6012C5.50079 15.4992 4.69639 16.0416 4.69639 16.0416C4.69639 16.0416 4.82759 15.836 4.82759 15.368C4.82759 13.3104 1.25439 13.8904 1.25439 12.6932C1.25439 12.3752 1.51639 11.8328 2.56399 11.8328C3.51799 11.8328 4.02319 12.3376 4.26599 12.3376C4.84599 12.3376 4.77119 11.6268 4.77119 11.6268C4.49079 11.4212 3.55519 10.8976 2.54519 10.916C0.936395 10.916 0.244395 11.8888 0.244395 12.7492C0.244395 14.994 3.91079 14.2084 3.91079 15.5552C3.91079 16.2472 3.49919 16.6404 2.48919 16.6404C1.60999 16.6404 0.973995 15.9296 0.599995 15.9296C-0.0548053 15.9296 0.0011947 16.6028 0.0011947 16.6028C0.169195 16.7336 1.21719 17.5944 2.60119 17.5756C3.76119 17.538 5.14519 17.0704 6.36119 15.6116V15.574C6.60439 16.4532 7.14679 17.5756 8.41879 17.5756C9.61599 17.5756 10.3084 16.2288 10.3084 16.2288C10.3084 16.2288 10.9068 17.5756 12.2724 17.5756C13.2264 17.5756 13.9748 17.1076 14.6108 15.9856C14.91 17.0516 15.5088 17.5756 16.4252 17.5756C17.5476 17.5756 18.1836 16.2288 18.296 15.9668C18.5016 16.3784 19.2312 17.5196 20.728 17.5756C23.2528 17.6692 23.9452 15.4056 23.9824 14.2272C24.02 13.086 23.3652 11.0092 21.3448 10.9348ZM19.1564 7.8856C19.1564 7.8856 19.7548 7.7548 19.7364 8.4468C19.6804 10.0556 18.7636 10.4484 18.7636 10.4484C18.8756 9.0828 19.1564 7.8856 19.1564 7.8856ZM6.97879 13.4976C6.90359 10.5048 7.38999 7.9416 7.38999 7.9416C7.38999 7.9416 7.98879 7.9604 7.98879 9.532C7.98879 11.8516 6.97839 13.4976 6.97839 13.4976H6.97879ZM14.4236 13.292C14.4236 15.2184 13.7128 16.528 12.4036 16.528C11.038 16.528 10.8696 14.9004 10.8696 14.3956C10.8696 13.7408 11.1688 11.9636 12.7776 11.9636C13.9 11.9636 14.4236 13.2916 14.4236 13.2732V13.292ZM22.9536 14.302C22.9164 15.1624 22.4296 16.6404 20.9148 16.584C19.3432 16.5092 18.9508 14.994 18.988 14.3392C19.0628 13.1424 19.8672 11.8512 21.2516 11.9072C22.5984 11.9636 22.9724 13.4416 22.9536 14.302Z" fill="#FF4143"/>
</svg>
