<svg width="24" height="24" viewBox="0 0 24 24" fill="none" xmlns="http://www.w3.org/2000/svg">
<g clip-path="url(#clip0_101_1001)">
<path d="M16.7403 9H22.9395C23.5252 9 24 9.51039 24 10.14V16.2102C24 18.5242 22.255 20.4 20.1025 20.4H20.0841C17.9316 20.4003 16.1863 18.5248 16.186 16.2108C16.186 16.2106 16.186 16.2104 16.186 16.2102V9.59581C16.186 9.26675 16.4342 9 16.7403 9Z" fill="#5059C9"/>
<path d="M20.9302 7.79999C22.3173 7.79999 23.4418 6.59116 23.4418 5.09999C23.4418 3.60883 22.3173 2.39999 20.9302 2.39999C19.5431 2.39999 18.4186 3.60883 18.4186 5.09999C18.4186 6.59116 19.5431 7.79999 20.9302 7.79999Z" fill="#5059C9"/>
<path d="M13.1163 7.80001C15.12 7.80001 16.7442 6.05392 16.7442 3.9C16.7442 1.74609 15.12 0 13.1163 0C11.1127 0 9.4884 1.74609 9.4884 3.9C9.4884 6.05392 11.1127 7.80001 13.1163 7.80001Z" fill="#7B83EB"/>
<path d="M17.9537 9H7.72073C7.14202 9.0154 6.68423 9.53168 6.69766 10.1538V17.0772C6.61685 20.8105 9.36442 23.9086 12.8372 24C16.31 23.9086 19.0575 20.8105 18.9767 17.0772V10.1538C18.9901 9.53168 18.5324 9.0154 17.9537 9Z" fill="#7B83EB"/>
<path opacity="0.1" d="M13.3954 9V18.702C13.3926 19.1469 13.1418 19.5466 12.7591 19.716C12.6372 19.7714 12.5063 19.8 12.374 19.8H7.18885C7.11629 19.602 7.04931 19.404 6.99349 19.2C6.79812 18.5115 6.69843 17.7958 6.69768 17.076V10.152C6.68426 9.53087 7.14129 9.0154 7.71907 9H13.3954Z" fill="black"/>
<path opacity="0.2" d="M12.8372 9V19.302C12.8372 19.4442 12.8106 19.585 12.7591 19.716C12.6015 20.1274 12.2297 20.397 11.8158 20.4H7.45117C7.35629 20.202 7.26699 20.004 7.18885 19.8C7.1107 19.596 7.04931 19.404 6.99349 19.2C6.79812 18.5115 6.69843 17.7958 6.69768 17.076V10.152C6.68426 9.53087 7.14129 9.0154 7.71907 9H12.8372Z" fill="black"/>
<path opacity="0.2" d="M12.8372 9V18.102C12.833 18.7065 12.3782 19.1954 11.8158 19.2H6.99349C6.79812 18.5115 6.69843 17.7958 6.69768 17.076V10.152C6.68426 9.53087 7.14129 9.0154 7.71907 9H12.8372Z" fill="black"/>
<path opacity="0.2" d="M12.2791 9V18.102C12.2748 18.7065 11.82 19.1954 11.2577 19.2H6.99349C6.79812 18.5115 6.69843 17.7958 6.69768 17.076V10.152C6.68426 9.53087 7.14129 9.0154 7.71907 9H12.2791Z" fill="black"/>
<path opacity="0.1" d="M13.3954 5.89801V7.78801C13.3005 7.794 13.2112 7.80001 13.1163 7.80001C13.0214 7.80001 12.9321 7.79401 12.8372 7.78801C12.6488 7.77457 12.462 7.74243 12.2791 7.69201C11.1489 7.40428 10.2151 6.55218 9.76748 5.40001C9.69045 5.20653 9.63066 5.00562 9.58887 4.80002H12.374C12.9372 4.80231 13.3932 5.29255 13.3954 5.89801Z" fill="black"/>
<path opacity="0.2" d="M12.8372 6.498V7.788C12.6488 7.77456 12.462 7.74243 12.2791 7.69201C11.1488 7.40427 10.2151 6.55217 9.76746 5.40001H11.8158C12.379 5.4023 12.8351 5.89255 12.8372 6.498Z" fill="black"/>
<path opacity="0.2" d="M12.8372 6.498V7.788C12.6488 7.77456 12.462 7.74243 12.2791 7.69201C11.1488 7.40427 10.2151 6.55217 9.76746 5.40001H11.8158C12.379 5.4023 12.8351 5.89255 12.8372 6.498Z" fill="black"/>
<path opacity="0.2" d="M12.2791 6.49799V7.69199C11.1488 7.40426 10.2151 6.55216 9.76746 5.39999H11.2577C11.8209 5.4023 12.2769 5.89255 12.2791 6.49799Z" fill="black"/>
<path d="M1.02306 5.39999H11.256C11.821 5.39999 12.2791 5.8924 12.2791 6.49979V17.5002C12.2791 18.1076 11.821 18.6 11.256 18.6H1.02306C0.458037 18.6 0 18.1076 0 17.5002V6.49979C0 5.8924 0.458048 5.39999 1.02306 5.39999Z" fill="url(#paint0_linear_101_1001)"/>
<path d="M8.83195 9.5868H6.78636V15.5748H5.48311V9.5868H3.44702V8.4252H8.83195V9.5868Z" fill="white"/>
</g>
<defs>
<linearGradient id="paint0_linear_101_1001" x1="2.13312" y1="4.54063" x2="11.0461" y2="18.9006" gradientUnits="userSpaceOnUse">
<stop stop-color="#5A62C3"/>
<stop offset="0.5" stop-color="#4D55BD"/>
<stop offset="1" stop-color="#3940AB"/>
</linearGradient>
<clipPath id="clip0_101_1001">
<rect width="24" height="24" fill="white"/>
</clipPath>
</defs>
</svg>
