<svg width="24" height="24" viewBox="0 0 24 24" fill="none" xmlns="http://www.w3.org/2000/svg">
<path d="M23.4982 3.74789C23.2217 2.27188 22.4096 1.11195 21.3764 0.716839C19.5055 2.14577e-07 12 0 12 0C12 0 4.49458 2.14577e-07 2.62364 0.716839C1.59039 1.11195 0.778402 2.27188 0.501813 3.74789C1.50211e-07 6.4205 0 12 0 12C0 12 1.50211e-07 17.5795 0.501813 20.2522C0.778402 21.7282 1.59039 22.8881 2.62364 23.2831C4.49458 24 12 24 12 24C12 24 19.5055 24 21.3764 23.2831C22.4096 22.8881 23.2217 21.7282 23.4982 20.2522C24.0001 17.5795 24.0001 12 24.0001 12C24.0001 12 23.9981 6.4205 23.4982 3.74789Z" fill="#FF0000"/>
<path d="M9.59772 17.1425L15.8328 12.0005L9.59772 6.8584V17.1425Z" fill="white"/>
</svg>
